# xmcd CD database file
#
# Track frame offsets:
#	187
#	18725
#	32790
#	50435
#	68280
#	85520
#	99260
#	117295
#	135332
#	145400
#
# Disc length: 2150 seconds
#
# Revision: 2
# Processed by: cddbd v1.5.1PL0 Copyright (c) Steve Scherf et al.
# Submitted via: CDex 1.51
#
DISCID=7808640a
DTITLE=Hanoi Rocks - Bangkok Shocks Saigon Shakes
DYEAR=1981
DGENRE=Rock
TTITLE0=Tragedy
TTITLE1=Village Girl
TTITLE2=Stop Cryin'
TTITLE3=Don't Never Leave Me
TTITLE4=Lost In The City
TTITLE5=First Timer
TTITLE6=Cheyenne
TTITLE7=11th Street Kidzz
TTITLE8=Walking With My Angel
TTITLE9=Pretender
EXTD=YEAR: 1981
EXTT0=
EXTT1=
EXTT2=
EXTT3=
EXTT4=
EXTT5=
EXTT6=
EXTT7=
EXTT8=
EXTT9=
PLAYORDER=
